<mxfile host="65bd71144e">
    <diagram id="uLfyup0coWNS7o469vWR" name="Page-1">
        <mxGraphModel dx="1260" dy="708" grid="1" gridSize="10" guides="1" tooltips="1" connect="1" arrows="1" fold="1" page="1" pageScale="1" pageWidth="1169" pageHeight="827" math="0" shadow="0">
            <root>
                <mxCell id="0"/>
                <mxCell id="1" parent="0"/>
                <mxCell id="13" value="" style="endArrow=classic;html=1;fontSize=22;entryX=0.997;entryY=0.815;entryDx=0;entryDy=0;entryPerimeter=0;exitX=-0.008;exitY=0.815;exitDx=0;exitDy=0;exitPerimeter=0;" edge="1" parent="1" source="10" target="5">
                    <mxGeometry width="50" height="50" relative="1" as="geometry">
                        <mxPoint x="520" y="220.5" as="sourcePoint"/>
                        <mxPoint x="818.5699999999999" y="220.5" as="targetPoint"/>
                    </mxGeometry>
                </mxCell>
                <mxCell id="5" value="C2P" style="rounded=0;whiteSpace=wrap;html=1;fontSize=22;fillColor=#ffe6cc;strokeColor=#d79b00;" vertex="1" parent="1">
                    <mxGeometry x="400" y="160" width="110" height="250" as="geometry"/>
                </mxCell>
                <mxCell id="6" value="OSCAL&lt;br&gt;(Component Definition)" style="shape=note;whiteSpace=wrap;html=1;backgroundOutline=1;darkOpacity=0.05;fontSize=22;size=22;" vertex="1" parent="1">
                    <mxGeometry x="150" y="160" width="150" height="90" as="geometry"/>
                </mxCell>
                <mxCell id="7" value="OSCAL&lt;br&gt;(Assessment Results)" style="shape=note;whiteSpace=wrap;html=1;backgroundOutline=1;darkOpacity=0.05;fontSize=22;size=23;" vertex="1" parent="1">
                    <mxGeometry x="150" y="310" width="150" height="90" as="geometry"/>
                </mxCell>
                <mxCell id="9" value="OCM Policy Results" style="shape=note;whiteSpace=wrap;html=1;backgroundOutline=1;darkOpacity=0.05;fontSize=22;size=21;" vertex="1" parent="1">
                    <mxGeometry x="570" y="320" width="140" height="80" as="geometry"/>
                </mxCell>
                <mxCell id="10" value="OCM" style="rounded=0;whiteSpace=wrap;html=1;fontSize=22;fillColor=#dae8fc;strokeColor=#6c8ebf;" vertex="1" parent="1">
                    <mxGeometry x="750" y="160" width="110" height="250" as="geometry"/>
                </mxCell>
                <mxCell id="11" value="" style="endArrow=classic;html=1;fontSize=22;entryX=-0.009;entryY=0.214;entryDx=0;entryDy=0;entryPerimeter=0;" edge="1" parent="1" target="5">
                    <mxGeometry width="50" height="50" relative="1" as="geometry">
                        <mxPoint x="300" y="214" as="sourcePoint"/>
                        <mxPoint x="480" y="220" as="targetPoint"/>
                    </mxGeometry>
                </mxCell>
                <mxCell id="12" value="" style="endArrow=classic;html=1;fontSize=22;entryX=-0.013;entryY=0.202;entryDx=0;entryDy=0;entryPerimeter=0;" edge="1" parent="1" target="10">
                    <mxGeometry width="50" height="50" relative="1" as="geometry">
                        <mxPoint x="510" y="210.5" as="sourcePoint"/>
                        <mxPoint x="806" y="209" as="targetPoint"/>
                    </mxGeometry>
                </mxCell>
                <mxCell id="8" value="OCM Policy" style="shape=note;whiteSpace=wrap;html=1;backgroundOutline=1;darkOpacity=0.05;fontSize=22;size=21;" vertex="1" parent="1">
                    <mxGeometry x="570" y="165" width="140" height="80" as="geometry"/>
                </mxCell>
                <mxCell id="14" value="" style="endArrow=classic;html=1;fontSize=22;entryX=0;entryY=0;entryDx=150;entryDy=56.5;entryPerimeter=0;exitX=-0.015;exitY=0.823;exitDx=0;exitDy=0;exitPerimeter=0;" edge="1" parent="1" source="5" target="7">
                    <mxGeometry width="50" height="50" relative="1" as="geometry">
                        <mxPoint x="819.1200000000001" y="373.75" as="sourcePoint"/>
                        <mxPoint x="519.6699999999998" y="373.75" as="targetPoint"/>
                    </mxGeometry>
                </mxCell>
                <mxCell id="15" value="oscal2policy" style="text;html=1;strokeColor=none;fillColor=none;align=center;verticalAlign=middle;whiteSpace=wrap;rounded=0;fontSize=22;" vertex="1" parent="1">
                    <mxGeometry x="425" y="130" width="60" height="30" as="geometry"/>
                </mxCell>
                <mxCell id="16" value="result2oscal" style="text;html=1;strokeColor=none;fillColor=none;align=center;verticalAlign=middle;whiteSpace=wrap;rounded=0;fontSize=22;" vertex="1" parent="1">
                    <mxGeometry x="425" y="410" width="60" height="30" as="geometry"/>
                </mxCell>
                <mxCell id="17" value="1" style="text;html=1;strokeColor=none;fillColor=none;align=center;verticalAlign=middle;whiteSpace=wrap;rounded=0;fontSize=22;" vertex="1" parent="1">
                    <mxGeometry x="120" y="120" width="60" height="30" as="geometry"/>
                </mxCell>
                <mxCell id="19" value="2&lt;span style=&quot;color: rgba(0, 0, 0, 0); font-family: monospace; font-size: 0px; text-align: start;&quot;&gt;%3CmxGraphModel%3E%3Croot%3E%3CmxCell%20id%3D%220%22%2F%3E%3CmxCell%20id%3D%221%22%20parent%3D%220%22%2F%3E%3CmxCell%20id%3D%222%22%20value%3D%221%22%20style%3D%22text%3Bhtml%3D1%3BstrokeColor%3Dnone%3BfillColor%3Dnone%3Balign%3Dcenter%3BverticalAlign%3Dmiddle%3BwhiteSpace%3Dwrap%3Brounded%3D0%3BfontSize%3D22%3B%22%20vertex%3D%221%22%20parent%3D%221%22%3E%3CmxGeometry%20x%3D%2290%22%20y%3D%22330%22%20width%3D%2260%22%20height%3D%2230%22%20as%3D%22geometry%22%2F%3E%3C%2FmxCell%3E%3C%2Froot%3E%3C%2FmxGraphModel%3E&lt;/span&gt;" style="text;html=1;strokeColor=none;fillColor=none;align=center;verticalAlign=middle;whiteSpace=wrap;rounded=0;fontSize=22;" vertex="1" parent="1">
                    <mxGeometry x="350" y="120" width="60" height="30" as="geometry"/>
                </mxCell>
                <mxCell id="20" value="3" style="text;html=1;strokeColor=none;fillColor=none;align=center;verticalAlign=middle;whiteSpace=wrap;rounded=0;fontSize=22;" vertex="1" parent="1">
                    <mxGeometry x="560" y="120" width="60" height="30" as="geometry"/>
                </mxCell>
                <mxCell id="21" value="4" style="text;html=1;strokeColor=none;fillColor=none;align=center;verticalAlign=middle;whiteSpace=wrap;rounded=0;fontSize=22;" vertex="1" parent="1">
                    <mxGeometry x="562" y="430" width="56" height="30" as="geometry"/>
                </mxCell>
                <mxCell id="22" value="5" style="text;html=1;strokeColor=none;fillColor=none;align=center;verticalAlign=middle;whiteSpace=wrap;rounded=0;fontSize=22;" vertex="1" parent="1">
                    <mxGeometry x="352" y="430" width="56" height="30" as="geometry"/>
                </mxCell>
                <mxCell id="23" value="6" style="text;html=1;strokeColor=none;fillColor=none;align=center;verticalAlign=middle;whiteSpace=wrap;rounded=0;fontSize=22;" vertex="1" parent="1">
                    <mxGeometry x="122" y="430" width="56" height="30" as="geometry"/>
                </mxCell>
            </root>
        </mxGraphModel>
    </diagram>
</mxfile>